<?xml version="1.0" encoding="UTF-8"?>
<svg height="100" version="1.1" width="100" xmlns="http://www.w3.org/2000/svg">
    <path
        d="M0 0 C8.64994613 6.04149934 14.67280333 13.6232036 17.7578125 23.71484375 C18.04398438 24.64876953 18.04398438 24.64876953 18.3359375 25.6015625 C20.42779789 36.08023354 18.76738703 46.71941584 13.47265625 55.95703125 C7.43115691 64.60697738 -0.15054735 70.62983458 -10.2421875 73.71484375 C-10.86480469 73.905625 -11.48742188 74.09640625 -12.12890625 74.29296875 C-22.60757729 76.38482914 -33.24675959 74.72441828 -42.484375 69.4296875 C-51.13432113 63.38818816 -57.15717833 55.8064839 -60.2421875 45.71484375 C-60.43296875 45.09222656 -60.62375 44.46960937 -60.8203125 43.828125 C-62.91217289 33.34945396 -61.25176203 22.71027166 -55.95703125 13.47265625 C-49.91553191 4.82271012 -42.33382765 -1.20014708 -32.2421875 -4.28515625 C-31.61957031 -4.4759375 -30.99695313 -4.66671875 -30.35546875 -4.86328125 C-19.87679771 -6.95514164 -9.23761541 -5.29473078 0 0 Z "
        fill="#3C5A98" transform="translate(71.2421875,15.28515625)" />
    <path
        d="M0 0 C1.25425781 0.02707031 2.50851563 0.05414062 3.80078125 0.08203125 C4.75339844 0.11683594 5.70601562 0.15164062 6.6875 0.1875 C6.6875 3.1575 6.6875 6.1275 6.6875 9.1875 C4.8003125 9.31125 4.8003125 9.31125 2.875 9.4375 C0.15937283 9.80214252 -1.05311191 9.98668342 -3.25 11.6875 C-4.85919655 15.47384482 -5.01121278 19.08999386 -5.3125 23.1875 C-1.3525 23.1875 2.6075 23.1875 6.6875 23.1875 C6.3575 26.4875 6.0275 29.7875 5.6875 33.1875 C2.0575 33.1875 -1.5725 33.1875 -5.3125 33.1875 C-5.3125 42.7575 -5.3125 52.3275 -5.3125 62.1875 C-8.9425 62.1875 -12.5725 62.1875 -16.3125 62.1875 C-16.3125 52.9475 -16.3125 43.7075 -16.3125 34.1875 C-19.6125 34.1875 -22.9125 34.1875 -26.3125 34.1875 C-26.3125 30.5575 -26.3125 26.9275 -26.3125 23.1875 C-23.0125 23.1875 -19.7125 23.1875 -16.3125 23.1875 C-16.35890625 22.33027344 -16.4053125 21.47304688 -16.453125 20.58984375 C-16.67582244 13.53510692 -16.81554022 8.78587432 -12.3125 3.1875 C-8.19054583 0.04450995 -5.11329677 -0.14336346 0 0 Z "
        fill="#FBFBFD" transform="translate(60.3125,26.8125)" />
</svg>
